<?xml version="1.0" encoding="UTF-8" standalone="no"?>
<svg
   xmlns:dc="http://purl.org/dc/elements/1.1/"
   xmlns:cc="http://creativecommons.org/ns#"
   xmlns:rdf="http://www.w3.org/1999/02/22-rdf-syntax-ns#"
   xmlns:svg="http://www.w3.org/2000/svg"
   xmlns="http://www.w3.org/2000/svg"
   xmlns:xlink="http://www.w3.org/1999/xlink"
   version="1.1"
   id="svg2"
   viewBox="0 0 32 32.000001"
   height="32"
   width="32">
  <defs
     id="defs4">
    <linearGradient
       id="linearGradient4142">
      <stop
         id="stop4144"
         offset="0"
         style="stop-color:#0064ff;stop-opacity:1" />
      <stop
         id="stop4146"
         offset="1"
         style="stop-color:#00f9ff;stop-opacity:1" />
    </linearGradient>
    <linearGradient
       gradientTransform="translate(0,-1020.3622)"
       gradientUnits="userSpaceOnUse"
       y2="1020.3622"
       x2="32"
       y1="1052.3622"
       x1="0"
       id="linearGradient4148"
       xlink:href="#linearGradient4142" />
  </defs>
  <metadata
     id="metadata7">
    <rdf:RDF>
      <cc:Work
         rdf:about="">
        <dc:format>image/svg+xml</dc:format>
        <dc:type
           rdf:resource="http://purl.org/dc/dcmitype/StillImage" />
        <dc:title></dc:title>
      </cc:Work>
    </rdf:RDF>
  </metadata>
  <g
     transform="translate(0,-1020.3622)"
     id="layer1">
    <path
       id="path4140"
       transform="translate(0,1020.3622)"
       d="M 16 0 A 16 16 0 0 0 12.791016 0.34375 A 12 12 0 0 1 22 12 A 12 12 0 0 1 10 24 A 12 12 0 0 1 0.30859375 19.054688 A 16 16 0 0 0 16 32 A 16 16 0 0 0 32 16 A 16 16 0 0 0 16 0 z M 10 6 A 6 6 0 0 0 4 12 A 6 6 0 0 0 10 18 A 6 6 0 0 0 16 12 A 6 6 0 0 0 10 6 z M 22 6 L 27 6 L 27 7 L 22 7 L 22 6 z M 23 9 L 29 9 L 29 10 L 23 10 L 23 9 z M 23 12 L 30 12 L 30 13 L 23 13 L 23 12 z M 23 15 L 30 15 L 30 16 L 23 16 L 23 15 z M 21 18 L 30 18 L 30 19 L 21 19 L 21 18 z M 19 21 L 29 21 L 29 22 L 19 22 L 19 21 z M 14 24 L 28 24 L 28 25 L 14 25 L 14 24 z M 7 27 L 25 27 L 25 28 L 7 28 L 7 27 z "
       style="fill:url(#linearGradient4148);stroke:none;stroke-width:2;stroke-miterlimit:4;stroke-dasharray:none;stroke-opacity:1;fill-opacity:1" />
  </g>
</svg>
